<svg xmlns="http://www.w3.org/2000/svg" xmlns:svg="http://www.w3.org/2000/svg" xmlns:xlink="http://www.w3.org/1999/xlink" id="svg3" version="1.1" viewBox="0 0 128 128"><defs id="defs3"><linearGradient id="linearGradient3"><stop style="stop-color:#2d2d2d;stop-opacity:.40113997" id="stop4" offset=".406"/><stop style="stop-color:#858181;stop-opacity:1" id="stop3" offset="1"/></linearGradient><linearGradient id="linearGradient4" x1="36.235" x2="127.787" y1="64.188" y2="64.188" gradientUnits="userSpaceOnUse" xlink:href="#linearGradient3"/></defs><path id="path1" fill="none" stroke="#d3b86c" stroke-linecap="butt" stroke-width="2" d="M 64.31 21.87 C 28.03 38.49 26.79 86.48 61.30 105.47 Q 61.93 105.82 64.31 106.45" vector-effect="non-scaling-stroke"/><path id="path2" fill="#fdcb33" d="M 64.31 21.87 C 28.03 38.49 26.79 86.48 61.30 105.47 Q 61.93 105.82 64.31 106.45 C 63.98 109.80 46.93 109.88 44.38 109.88 C 28.12 109.90 13.23 98.65 6.40 85.01 C -12.37 47.49 24.80 6.06 64.31 21.87 Z"/><path id="path3" fill="#858181" d="M 64.31 106.45 Q 61.93 105.82 61.30 105.47 C 26.79 86.48 28.03 38.49 64.31 21.87 Q 73.66 18.25 83.49 18.52 C 110.09 19.27 129.16 41.14 127.71 67.97 C 126.57 89.04 107.66 109.88 85.76 109.76 C 80.98 109.73 75.55 110.35 70.94 108.99 C 69.86 108.67 65.28 107.77 65.20 106.64 Q 65.16 106.17 64.71 106.27 Q 64.51 106.31 64.31 106.45 Z" style="fill:url(#linearGradient4)"/></svg>